<svg xmlns="http://www.w3.org/2000/svg" xmlns:xlink="http://www.w3.org/1999/xlink" width="500" zoomAndPan="magnify" viewBox="0 0 375 374.999991" height="500" preserveAspectRatio="xMidYMid meet" version="1.0"><defs><g/><clipPath id="f27be06f79"><path d="M 149 131.558594 L 175 131.558594 L 175 158 L 149 158 Z M 149 131.558594 " clip-rule="nonzero"/></clipPath><clipPath id="ce5138eaaf"><path d="M 88.363281 165 L 192 165 L 192 238 L 88.363281 238 Z M 88.363281 165 " clip-rule="nonzero"/></clipPath><clipPath id="d664d47ffd"><path d="M 80 72.316406 L 288 72.316406 L 288 168 L 80 168 Z M 80 72.316406 " clip-rule="nonzero"/></clipPath></defs><rect x="-37.5" width="450" fill="#ffffff" y="-37.499999" height="449.999989" fill-opacity="1"/><rect x="-37.5" width="450" fill="#ffffff" y="-37.499999" height="449.999989" fill-opacity="1"/><g clip-path="url(#f27be06f79)"><path fill="#d03531" d="M 160.351562 135.78125 C 160.507812 135.46875 160.660156 135.179688 160.855469 134.886719 C 160.894531 134.847656 160.914062 134.789062 160.953125 134.75 C 161.785156 133.566406 162.925781 132.75 164.550781 132.226562 L 164.609375 132.207031 C 166.488281 131.625 168.421875 131.855469 170.03125 132.691406 C 171.65625 133.546875 172.972656 135.003906 173.574219 136.90625 L 173.589844 136.964844 C 174.5 139.878906 174.019531 143.105469 172.835938 146.484375 C 171.734375 149.628906 170.070312 152.894531 168.386719 156.15625 C 167.84375 157.203125 166.585938 157.613281 165.539062 157.070312 C 162.289062 155.378906 159.035156 153.6875 156.324219 151.765625 C 153.402344 149.667969 151.136719 147.300781 150.207031 144.367188 L 150.191406 144.308594 C 149.609375 142.421875 149.839844 140.480469 150.671875 138.871094 C 151.523438 137.238281 152.976562 135.917969 154.875 135.316406 L 154.894531 135.316406 C 156.578125 134.769531 158.027344 134.808594 159.421875 135.355469 C 159.5 135.371094 159.558594 135.410156 159.636719 135.449219 C 159.886719 135.546875 160.121094 135.664062 160.351562 135.78125 Z M 164.378906 137.257812 C 164.011719 137.800781 163.777344 138.617188 163.625 139.664062 C 163.566406 140.132812 163.371094 140.597656 163.003906 140.949219 C 162.171875 141.761719 160.835938 141.742188 160.023438 140.910156 C 159.289062 140.152344 158.648438 139.605469 158.066406 139.355469 L 157.953125 139.316406 C 157.488281 139.140625 156.984375 139.121094 156.34375 139.316406 C 156.25 139.355469 156.152344 139.394531 156.035156 139.414062 C 155.339844 139.683594 154.777344 140.191406 154.449219 140.832031 C 154.117188 141.472656 154.023438 142.210938 154.214844 142.949219 C 154.253906 143.046875 154.292969 143.160156 154.3125 143.257812 C 154.953125 145.105469 156.617188 146.753906 158.804688 148.308594 C 160.757812 149.707031 163.160156 151.027344 165.617188 152.328125 C 166.894531 149.824219 168.074219 147.375 168.867188 145.105469 C 169.738281 142.578125 170.144531 140.25 169.625 138.363281 C 169.585938 138.265625 169.546875 138.171875 169.527344 138.054688 C 169.257812 137.355469 168.753906 136.789062 168.113281 136.460938 C 167.476562 136.128906 166.738281 136.035156 166.003906 136.226562 C 165.90625 136.265625 165.808594 136.304688 165.695312 136.324219 C 165.113281 136.539062 164.726562 136.808594 164.457031 137.179688 Z M 164.609375 132.226562 C 164.804688 132.167969 164.996094 132.148438 165.191406 132.148438 Z M 150.207031 144.328125 C 150.152344 144.132812 150.132812 143.9375 150.132812 143.746094 Z M 150.207031 144.328125 " fill-opacity="1" fill-rule="nonzero"/></g><path fill="#f16d2c" d="M 183.871094 183.875 C 185.652344 177.25 185.882812 177.132812 186.40625 175.792969 C 185.726562 174.046875 184.625 170.199219 183.289062 161.984375 C 181.082031 148.386719 182.6875 145.375 182.6875 145.375 C 183.171875 144.328125 184.429688 143.859375 185.496094 144.347656 C 185.613281 144.40625 185.710938 144.464844 185.804688 144.519531 L 205.433594 158.117188 C 207.601562 157.886719 213.890625 157.1875 220.492188 156.503906 C 219.816406 144.792969 228.796875 135.820312 229.707031 134.925781 C 229.882812 134.730469 230.09375 134.578125 230.347656 134.480469 C 231.410156 133.992188 232.667969 134.480469 233.132812 135.546875 L 242.328125 156.058594 C 244.765625 156.953125 247.167969 158.410156 249.488281 160.351562 C 254.019531 164.121094 258.296875 169.734375 262.128906 176.277344 C 263.601562 178.804688 265.710938 181.835938 267.957031 185.078125 C 276.203125 196.964844 286.363281 211.648438 280.363281 223.128906 C 278.796875 226.121094 275.929688 229.109375 272.273438 231.8125 C 269.40625 233.929688 266 235.910156 262.363281 237.617188 C 262.324219 237.636719 262.285156 237.65625 262.226562 237.675781 C 258.335938 239.484375 254.15625 240.960938 249.992188 241.949219 C 241.6875 243.929688 233.382812 243.988281 227.402344 240.824219 C 226.066406 240.125 224.847656 239.25 223.765625 238.21875 C 221.867188 236.917969 217.976562 235.132812 213.757812 234.859375 C 211.007812 234.683594 208.164062 235.152344 205.78125 236.917969 C 202.550781 239.308594 198.40625 240.785156 195.019531 240.882812 C 193.316406 240.921875 191.769531 240.628906 190.507812 239.929688 C 189.058594 239.132812 188.03125 237.890625 187.605469 236.101562 C 187.179688 234.316406 187.46875 232.023438 188.710938 229.167969 C 190.898438 224.15625 194.652344 220.933594 198.71875 218.972656 C 202.550781 217.125 206.710938 216.40625 210.078125 216.40625 C 207.582031 211.453125 205.742188 207.257812 204.71875 204.792969 C 203.1875 206.503906 202.238281 208.015625 202.238281 208.035156 C 201.621094 209.027344 200.324219 209.320312 199.335938 208.695312 C 198.347656 208.074219 198.058594 206.773438 198.679688 205.785156 C 198.699219 205.765625 204.273438 196.867188 211.335938 195.953125 C 212.5 195.800781 213.542969 196.636719 213.699219 197.78125 C 213.855469 198.945312 213.019531 199.996094 211.878906 200.152344 C 210.542969 200.324219 209.265625 200.945312 208.066406 201.761719 C 208.957031 203.976562 211.628906 210.328125 215.558594 217.769531 C 215.597656 217.84375 215.652344 217.921875 215.671875 218 C 216.929688 220.371094 218.34375 222.855469 219.855469 225.363281 L 219.875 225.402344 L 219.894531 225.421875 C 221.597656 228.238281 223.453125 231.054688 225.429688 233.734375 C 226.472656 235.152344 227.808594 236.257812 229.359375 237.074219 C 234.351562 239.695312 241.628906 239.582031 249.023438 237.8125 C 252.546875 236.976562 256.089844 235.753906 259.4375 234.296875 C 259.59375 232.433594 259.824219 228.585938 259.632812 224.429688 C 257.386719 224.195312 253.980469 223.457031 249.296875 221.4375 C 239.871094 217.339844 238.222656 211.53125 241.476562 210 C 244.726562 208.445312 249.683594 205.746094 260.988281 204.035156 C 272.292969 202.324219 269.367188 209.125 268.535156 212.929688 C 267.78125 216.386719 266.503906 222.488281 263.832031 224.042969 C 263.988281 227.089844 263.929688 230.003906 263.8125 232.160156 C 265.980469 230.996094 267.996094 229.714844 269.792969 228.390625 C 272.96875 226.042969 275.390625 223.554688 276.648438 221.167969 C 281.46875 211.960938 272.097656 198.460938 264.492188 187.503906 C 262.246094 184.261719 260.136719 181.230469 258.492188 178.414062 C 254.890625 172.257812 250.921875 167.035156 246.800781 163.59375 C 244.632812 161.789062 242.425781 160.488281 240.238281 159.808594 L 240.199219 159.789062 C 238.902344 159.398438 237.605469 159.246094 236.328125 159.320312 C 227.789062 159.867188 205.203125 162.410156 205.125 162.410156 C 204.640625 162.46875 204.117188 162.351562 203.691406 162.042969 L 186.25 149.960938 C 186.269531 152.019531 186.523438 155.476562 187.46875 161.285156 C 189.464844 173.617188 190.277344 174.394531 190.277344 174.394531 C 190.820312 175.015625 190.972656 175.949219 190.566406 176.726562 C 190.566406 176.726562 190.546875 175.289062 188.128906 184.28125 C 186.308594 188.417969 183.289062 186.070312 183.871094 183.875 Z M 246.121094 172.703125 C 248.347656 172.703125 250.148438 175.773438 250.148438 179.5625 C 250.148438 183.347656 248.347656 186.417969 246.121094 186.417969 C 243.894531 186.417969 242.09375 183.347656 242.09375 179.5625 C 242.113281 175.773438 243.914062 172.703125 246.121094 172.703125 Z M 227.152344 176.628906 C 229.378906 176.628906 231.179688 179.699219 231.179688 183.484375 C 231.179688 187.273438 229.378906 190.339844 227.152344 190.339844 C 224.925781 190.339844 223.125 187.273438 223.125 183.484375 C 223.125 179.699219 224.925781 176.628906 227.152344 176.628906 Z M 216.484375 227.925781 C 215.558594 227.304688 211.667969 225.304688 203.515625 228.859375 C 202.453125 229.324219 201.214844 228.820312 200.75 227.75 C 200.285156 226.683594 200.789062 225.441406 201.851562 224.972656 C 206.769531 222.835938 210.621094 222.449219 213.464844 222.71875 C 213.097656 222.058594 212.75 221.417969 212.402344 220.777344 C 209.480469 220.351562 204.832031 220.738281 200.574219 222.777344 C 197.324219 224.351562 194.34375 226.898438 192.601562 230.859375 C 191.75 232.800781 191.515625 234.199219 191.75 235.132812 C 191.863281 235.617188 192.15625 235.96875 192.5625 236.199219 C 193.140625 236.53125 193.972656 236.667969 194.941406 236.648438 C 197.515625 236.589844 200.730469 235.402344 203.304688 233.5 C 206.613281 231.074219 210.425781 230.394531 214.066406 230.625 C 215.671875 230.722656 217.242188 231.015625 218.710938 231.421875 C 217.9375 230.257812 217.203125 229.089844 216.484375 227.925781 Z M 216.484375 227.925781 " fill-opacity="1" fill-rule="nonzero"/><g clip-path="url(#ce5138eaaf)"><path fill="#f16d2c" d="M 121.96875 218.214844 C 121.871094 217.050781 122.742188 216.019531 123.902344 215.941406 C 125.066406 215.84375 126.089844 216.71875 126.167969 217.882812 C 126.167969 217.902344 126.476562 222.234375 128.414062 222.136719 C 131.140625 222.003906 133.542969 216.621094 133.5625 216.621094 C 134.046875 215.554688 135.304688 215.085938 136.347656 215.574219 C 136.949219 215.84375 137.355469 216.367188 137.511719 216.953125 C 137.511719 216.972656 139.234375 223.417969 142.390625 222.796875 C 146.355469 222.003906 147.789062 218.253906 147.789062 218.234375 C 148.214844 217.144531 149.433594 216.601562 150.519531 217.03125 C 151.601562 217.457031 152.144531 218.679688 151.71875 219.769531 C 151.71875 219.789062 149.453125 225.671875 143.203125 226.933594 C 139.214844 227.730469 136.621094 224.820312 135.109375 222.117188 C 133.582031 224.136719 131.355469 226.234375 128.605469 226.371094 C 122.527344 226.683594 121.96875 218.234375 121.96875 218.214844 Z M 182.457031 229.808594 C 182.652344 230.957031 181.875 232.0625 180.714844 232.257812 C 179.574219 232.453125 178.46875 231.675781 178.277344 230.507812 C 177.753906 227.421875 177.152344 223.886719 176.515625 220.15625 C 173.417969 220.601562 171.308594 221.226562 171.289062 221.226562 C 170.164062 221.554688 169.003906 220.894531 168.675781 219.789062 C 168.347656 218.660156 169.003906 217.496094 170.109375 217.164062 C 170.125 217.164062 172.410156 216.484375 175.777344 216 C 175.429688 213.941406 175.0625 211.863281 174.695312 209.785156 C 171.289062 210.96875 169.3125 212.210938 169.3125 212.210938 C 168.328125 212.816406 167.011719 212.503906 166.410156 211.511719 C 165.808594 210.523438 166.121094 209.203125 167.105469 208.601562 C 167.125 208.601562 169.644531 206.988281 173.941406 205.589844 C 173.746094 204.5 173.554688 203.433594 173.359375 202.402344 C 173.128906 201.121094 172.894531 199.859375 172.664062 198.636719 C 170.667969 199.375 168.828125 200.132812 167.300781 200.8125 C 166.796875 201.023438 166.46875 201.179688 166.292969 201.257812 L 166.199219 201.296875 C 165.828125 201.472656 165.480469 201.625 165.210938 201.761719 C 164.164062 202.269531 162.886719 201.800781 162.402344 200.753906 C 161.898438 199.703125 162.363281 198.441406 163.410156 197.9375 C 163.757812 197.78125 164.105469 197.605469 164.4375 197.449219 C 164.476562 197.429688 164.511719 197.410156 164.550781 197.410156 C 165.074219 197.179688 165.441406 197.003906 165.617188 196.925781 C 167.398438 196.128906 169.546875 195.253906 171.886719 194.402344 C 171.230469 191.019531 170.628906 188.070312 170.144531 185.875 C 168.269531 177.5625 166.003906 172.976562 164.609375 170.761719 L 152.609375 183.253906 C 152.066406 183.816406 151.273438 184.007812 150.578125 183.835938 C 150.558594 183.835938 142.117188 181.660156 137.027344 181.910156 C 131.996094 182.144531 127.601562 183.914062 127.601562 183.914062 C 126.710938 184.28125 125.703125 183.96875 125.140625 183.253906 C 124.5625 182.589844 120.050781 177.621094 114.960938 176.105469 C 111.515625 175.074219 107.703125 174.589844 105.164062 174.355469 L 109.617188 190.515625 C 109.753906 190.984375 109.714844 191.449219 109.539062 191.855469 C 109.347656 192.4375 108.398438 195.390625 107.121094 199.976562 C 112.152344 201.023438 114.863281 202.792969 114.863281 202.8125 C 115.851562 203.433594 116.160156 204.734375 115.539062 205.726562 C 114.921875 206.714844 113.625 207.027344 112.636719 206.40625 C 112.617188 206.40625 110.371094 204.910156 106.015625 204.054688 C 105.882812 204.597656 105.726562 205.160156 105.589844 205.746094 C 105.011719 208.054688 104.546875 210.191406 104.179688 212.058594 C 107.703125 211.609375 110.351562 211.417969 110.371094 211.417969 C 111.535156 211.339844 112.558594 212.210938 112.636719 213.378906 C 112.714844 214.542969 111.84375 215.574219 110.683594 215.652344 C 110.664062 215.652344 107.390625 215.902344 103.421875 216.425781 C 103.269531 217.496094 103.152344 218.351562 103.09375 218.933594 C 103.832031 219.671875 105.109375 220.914062 106.773438 222.410156 C 110.179688 221.050781 112.308594 220.796875 112.328125 220.796875 C 113.488281 220.660156 114.535156 221.496094 114.667969 222.664062 C 114.804688 223.828125 113.972656 224.875 112.8125 225.011719 C 112.8125 225.011719 111.941406 225.109375 110.449219 225.574219 C 114.320312 228.722656 119.121094 232.082031 123.710938 233.851562 C 124.792969 234.277344 125.355469 235.5 124.929688 236.589844 C 124.523438 237.675781 123.285156 238.238281 122.199219 237.8125 C 116.410156 235.597656 110.390625 231.113281 106 227.363281 C 103.636719 228.507812 100.792969 230.21875 97.65625 232.742188 C 96.746094 233.480469 95.410156 233.324219 94.695312 232.414062 C 93.957031 231.5 94.113281 230.160156 95.023438 229.441406 C 97.753906 227.246094 100.347656 225.59375 102.628906 224.351562 C 100.925781 222.757812 99.785156 221.613281 99.476562 221.285156 C 99.011719 220.855469 98.738281 220.214844 98.796875 219.535156 C 98.796875 219.535156 98.875 218.660156 99.085938 217.105469 C 96.242188 217.613281 93.472656 218.253906 91.558594 219.03125 C 90.472656 219.476562 89.253906 218.953125 88.808594 217.882812 C 88.363281 216.796875 88.886719 215.574219 89.953125 215.125 C 92.46875 214.078125 96.183594 213.28125 99.785156 212.699219 C 100.191406 210.445312 100.753906 207.726562 101.527344 204.714844 L 101.835938 203.53125 C 99.242188 203.355469 96.183594 203.472656 92.679688 204.054688 C 91.539062 204.25 90.433594 203.472656 90.242188 202.304688 C 90.046875 201.160156 90.824219 200.054688 91.984375 199.859375 C 96.164062 199.160156 99.84375 199.101562 102.941406 199.375 C 104.082031 195.273438 105.011719 192.285156 105.398438 191.058594 L 100.328125 172.628906 C 100.269531 172.433594 100.25 172.21875 100.25 172.003906 C 100.269531 170.839844 101.234375 169.90625 102.398438 169.945312 C 102.417969 169.945312 109.871094 170.179688 116.179688 172.042969 C 121.136719 173.519531 125.527344 177.5625 127.425781 179.503906 C 129.324219 178.882812 132.921875 177.890625 136.851562 177.695312 C 141.324219 177.484375 147.789062 178.84375 150.441406 179.445312 L 163.234375 166.121094 C 163.273438 166.082031 163.3125 166.023438 163.351562 165.984375 C 164.183594 165.148438 165.519531 165.148438 166.351562 165.984375 C 166.371094 166.003906 171.074219 170.722656 174.289062 184.941406 C 174.773438 187.058594 175.332031 189.855469 175.953125 193.082031 L 176.320312 192.964844 C 180.445312 191.777344 184.914062 190.945312 189.078125 191.078125 C 190.238281 191.117188 191.167969 192.089844 191.128906 193.253906 C 191.089844 194.421875 190.121094 195.351562 188.960938 195.3125 C 185.300781 195.21875 181.277344 195.972656 177.484375 197.0625 C 177.230469 197.140625 177 197.199219 176.746094 197.277344 C 177.019531 198.675781 177.269531 200.132812 177.539062 201.625 L 178.0625 204.460938 C 181.179688 203.78125 184.839844 203.335938 188.902344 203.511719 C 190.0625 203.550781 190.972656 204.539062 190.933594 205.707031 C 190.898438 206.871094 189.910156 207.785156 188.75 207.746094 C 184.992188 207.589844 181.644531 207.996094 178.816406 208.636719 C 179.222656 210.96875 179.632812 213.28125 180.039062 215.574219 C 182.089844 215.457031 184.316406 215.457031 186.542969 215.707031 C 187.703125 215.84375 188.535156 216.894531 188.417969 218.039062 C 188.285156 219.203125 187.238281 220.039062 186.097656 219.902344 C 184.277344 219.691406 182.476562 219.671875 180.773438 219.75 C 181.375 223.402344 181.953125 226.820312 182.457031 229.808594 Z M 182.457031 229.808594 " fill-opacity="1" fill-rule="nonzero"/></g><path fill="#f16d2c" d="M 126.691406 196.441406 C 128.722656 196.441406 130.386719 199.296875 130.386719 202.8125 C 130.386719 206.328125 128.742188 209.183594 126.691406 209.183594 C 124.65625 209.183594 122.992188 206.328125 122.992188 202.8125 C 123.011719 199.277344 124.65625 196.441406 126.691406 196.441406 Z M 126.691406 196.441406 " fill-opacity="1" fill-rule="evenodd"/><path fill="#f16d2c" d="M 148.371094 196.246094 C 150.402344 196.246094 152.066406 199.101562 152.066406 202.617188 C 152.066406 206.132812 150.421875 208.988281 148.371094 208.988281 C 146.335938 208.988281 144.671875 206.132812 144.671875 202.617188 C 144.671875 199.101562 146.335938 196.246094 148.371094 196.246094 Z M 148.371094 196.246094 " fill-opacity="1" fill-rule="evenodd"/><g clip-path="url(#d664d47ffd)"><path fill="#017b40" d="M 84.898438 167.695312 C 83.6875 167.695312 82.492188 167.179688 81.628906 166.207031 C 80.089844 164.421875 80.273438 161.703125 82.054688 160.121094 L 181.160156 73.835938 C 182.777344 72.417969 185.203125 72.417969 186.816406 73.835938 L 209.839844 93.890625 L 209.839844 77.105469 C 209.839844 74.71875 211.769531 72.789062 214.15625 72.789062 L 240.007812 72.789062 C 242.375 72.789062 244.320312 74.734375 244.320312 77.105469 L 244.320312 123.910156 L 285.90625 160.121094 C 287.707031 161.703125 287.890625 164.421875 286.347656 166.226562 C 284.789062 168.027344 282.050781 168.210938 280.253906 166.648438 L 237.179688 129.148438 C 236.226562 128.320312 235.675781 127.144531 235.675781 125.894531 L 235.675781 81.410156 L 218.453125 81.410156 L 218.453125 103.355469 C 218.453125 105.046875 217.460938 106.574219 215.9375 107.273438 C 214.414062 107.972656 212.59375 107.714844 211.308594 106.59375 L 183.972656 82.804688 L 87.707031 166.628906 C 86.898438 167.347656 85.890625 167.695312 84.898438 167.695312 " fill-opacity="1" fill-rule="nonzero"/></g><g fill="#017b40" fill-opacity="1"><g transform="translate(67.682174, 287.991809)"><g><path d="M 31.023438 -28.695312 C 29.734375 -36.277344 24.183594 -40.589844 16.503906 -39.992188 C 13.480469 -39.746094 10.953125 -38.855469 8.574219 -37.21875 L 8.128906 -36.921875 L 7.832031 -37.316406 C 7.730469 -37.464844 7.632812 -37.613281 7.582031 -37.714844 C 7.433594 -37.914062 7.335938 -38.0625 7.234375 -38.160156 C 6.542969 -38.804688 5.699219 -39.152344 4.90625 -39.152344 C 4.609375 -39.152344 4.3125 -39.101562 4.0625 -39.003906 C 2.972656 -38.65625 2.230469 -37.761719 1.980469 -36.523438 C 1.785156 -35.730469 1.785156 -34.890625 1.832031 -34.046875 C 1.882812 -30.726562 2.179688 -27.40625 2.476562 -24.136719 C 2.824219 -20.664062 3.171875 -17.097656 3.222656 -13.53125 C 3.222656 -11.546875 3.074219 -9.515625 2.925781 -7.53125 C 2.875 -6.542969 2.824219 -5.5 2.773438 -4.511719 C 2.675781 -2.925781 2.675781 -1.636719 3.816406 -1.039062 L 3.964844 -0.890625 C 4.460938 -0.296875 5.699219 0.199219 7.039062 -0.0507812 C 8.027344 -0.199219 9.367188 -0.792969 10.210938 -2.773438 C 10.605469 -3.667969 10.605469 -4.855469 10.65625 -5.945312 L 10.65625 -6.394531 C 10.703125 -7.484375 10.605469 -9.367188 10.554688 -10.605469 L 10.457031 -11.84375 L 11.050781 -11.84375 C 11.84375 -11.84375 12.636719 -11.84375 13.480469 -11.792969 C 15.066406 -11.695312 16.703125 -11.644531 17.988281 -11.84375 C 26.910156 -13.378906 32.410156 -20.46875 31.023438 -28.695312 Z M 20.070312 -22.5 C 18.039062 -20.566406 15.511719 -19.675781 11.992188 -19.675781 C 11.644531 -19.675781 11.300781 -19.675781 10.902344 -19.722656 L 10.40625 -19.722656 L 10.40625 -20.269531 C 10.40625 -23.589844 11.101562 -26.316406 12.539062 -28.742188 C 13.828125 -30.875 17.691406 -32.164062 19.871094 -31.171875 C 20.714844 -30.824219 21.507812 -29.933594 21.804688 -28.992188 C 22.648438 -26.664062 22.054688 -24.433594 20.070312 -22.5 Z M 20.070312 -22.5 "/></g></g></g><g fill="#017b40" fill-opacity="1"><g transform="translate(100.786279, 287.991809)"><g><path d="M 25.472656 -9.910156 C 24.730469 -13.332031 24.183594 -16.851562 23.441406 -20.320312 C 23.191406 -21.410156 22.894531 -22.847656 22.101562 -23.492188 C 19.722656 -25.324219 17.097656 -26.910156 13.777344 -26.363281 C 7.980469 -25.324219 2.328125 -18.980469 1.832031 -12.785156 C 1.386719 -7.085938 5.945312 -3.121094 11.597656 -4.460938 C 13.082031 -4.855469 14.472656 -5.699219 15.859375 -6.394531 C 16.355469 -6.640625 16.75 -7.039062 17.246094 -7.382812 C 17.492188 -7.039062 17.691406 -6.839844 17.839844 -6.589844 C 19.476562 -4.113281 21.609375 -3.171875 23.589844 -4.015625 C 25.523438 -4.855469 26.117188 -6.9375 25.472656 -9.910156 Z M 11.101562 -11.644531 C 10.554688 -11.449219 9.761719 -11.398438 9.265625 -11.644531 C 8.96875 -11.792969 8.96875 -12.835938 9.167969 -13.332031 C 10.257812 -16.402344 11.992188 -18.882812 15.3125 -20.269531 C 15.910156 -16.453125 14.125 -12.835938 11.101562 -11.644531 Z M 11.101562 -11.644531 "/></g></g></g><g fill="#017b40" fill-opacity="1"><g transform="translate(128.389548, 287.991809)"><g><path d="M 33.75 -26.316406 C 31.71875 -27.308594 29.289062 -26.464844 28.050781 -24.183594 C 27.40625 -22.996094 27.058594 -21.65625 26.5625 -20.417969 C 25.769531 -18.4375 24.976562 -16.453125 24.183594 -14.472656 C 22.894531 -16.898438 22.101562 -19.277344 21.160156 -21.65625 C 20.566406 -23.242188 19.476562 -24.53125 17.59375 -24.480469 C 15.609375 -24.433594 14.867188 -22.996094 14.222656 -21.410156 C 13.378906 -19.277344 12.390625 -17.246094 11.300781 -14.867188 C 10.210938 -17.691406 9.367188 -20.070312 8.375 -22.449219 C 7.335938 -24.828125 5.75 -25.722656 3.964844 -25.125 C 2.28125 -24.53125 1.535156 -22.796875 1.933594 -20.417969 C 1.933594 -20.21875 1.980469 -19.972656 2.03125 -19.773438 C 2.578125 -17.195312 3.023438 -14.570312 3.667969 -11.992188 C 4.164062 -10.011719 4.707031 -7.980469 5.453125 -6.046875 C 6.195312 -4.113281 7.582031 -2.675781 9.863281 -2.625 C 12.042969 -2.578125 13.378906 -3.914062 14.324219 -5.699219 C 15.164062 -7.335938 15.859375 -9.070312 16.75 -11.152344 C 17.097656 -10.359375 17.246094 -9.863281 17.445312 -9.464844 C 18.335938 -7.582031 18.980469 -5.550781 20.121094 -3.867188 C 22.203125 -0.84375 25.917969 -1.089844 27.753906 -4.210938 C 28.496094 -5.402344 28.890625 -6.789062 29.488281 -8.027344 C 30.925781 -11.152344 32.363281 -14.273438 33.847656 -17.34375 C 34.34375 -18.4375 35.039062 -19.378906 35.535156 -20.46875 C 36.574219 -22.894531 35.78125 -25.324219 33.75 -26.316406 Z M 33.75 -26.316406 "/></g></g></g><g fill="#017b40" fill-opacity="1"><g transform="translate(166.251123, 287.991809)"><g><path d="M 18.882812 -14.324219 C 17 -16.058594 14.472656 -17.148438 12.191406 -18.535156 C 11.546875 -18.929688 10.851562 -19.179688 10.011719 -19.625 C 11.792969 -21.707031 13.53125 -22.003906 15.910156 -20.714844 C 17 -20.171875 18.1875 -19.675781 19.03125 -20.664062 C 19.675781 -21.410156 20.070312 -22.699219 19.972656 -23.640625 C 19.675781 -26.117188 18.039062 -27.652344 15.710938 -28.398438 C 11.003906 -29.882812 5.054688 -27.40625 2.773438 -23.042969 C 1.238281 -20.070312 1.488281 -16.898438 4.015625 -14.71875 C 5.648438 -13.332031 7.730469 -12.539062 9.664062 -11.597656 C 10.804688 -11.003906 12.042969 -10.703125 13.230469 -10.257812 C 13.183594 -10.058594 13.132812 -9.863281 13.082031 -9.613281 C 11.496094 -9.761719 9.960938 -9.910156 8.425781 -10.109375 C 6.144531 -10.359375 4.359375 -9.613281 3.667969 -8.027344 C 2.925781 -6.34375 3.371094 -4.113281 5.203125 -2.972656 C 6.789062 -1.980469 8.671875 -1.1875 10.457031 -1.039062 C 12.4375 -0.941406 14.519531 -1.4375 16.402344 -2.132812 C 22.203125 -4.3125 23.441406 -10.109375 18.882812 -14.324219 Z M 18.882812 -14.324219 "/></g></g></g><g fill="#017b40" fill-opacity="1"><g transform="translate(189.790716, 287.991809)"><g><path d="M 37.664062 -7.679688 C 36.871094 -8.921875 35.632812 -9.464844 34.097656 -9.265625 C 33.105469 -9.167969 32.0625 -8.820312 31.171875 -8.523438 C 26.859375 -7.136719 21.707031 -6.046875 16.304688 -8.671875 C 11.792969 -10.902344 9.417969 -15.3125 10.308594 -19.921875 C 10.605469 -21.410156 11.050781 -23.34375 12.042969 -24.878906 C 16.601562 -32.164062 21.707031 -34.195312 28.59375 -31.421875 C 29.535156 -31.074219 30.378906 -30.824219 31.121094 -30.726562 C 32.113281 -30.628906 32.957031 -30.925781 33.453125 -31.617188 C 33.898438 -32.261719 33.949219 -33.105469 33.550781 -33.949219 C 33.105469 -34.890625 32.363281 -35.832031 31.371094 -36.671875 C 28.742188 -38.855469 25.421875 -39.945312 22.054688 -39.945312 C 19.128906 -39.945312 16.15625 -39.101562 13.53125 -37.417969 C 7.78125 -33.75 4.164062 -28.941406 2.625 -23.09375 C 0.644531 -15.363281 2.28125 -9.019531 7.433594 -4.210938 C 11.300781 -0.59375 16.453125 1.488281 22.699219 1.980469 C 26.960938 1.734375 30.777344 0.84375 34.394531 -0.792969 C 35.484375 -1.289062 36.625 -2.328125 37.664062 -3.667969 C 38.554688 -4.855469 38.554688 -6.34375 37.664062 -7.679688 Z M 37.664062 -7.679688 "/></g></g></g><g fill="#017b40" fill-opacity="1"><g transform="translate(229.981478, 287.991809)"><g><path d="M 25.472656 -9.910156 C 24.730469 -13.332031 24.183594 -16.851562 23.441406 -20.320312 C 23.191406 -21.410156 22.894531 -22.847656 22.101562 -23.492188 C 19.722656 -25.324219 17.097656 -26.910156 13.777344 -26.363281 C 7.980469 -25.324219 2.328125 -18.980469 1.832031 -12.785156 C 1.386719 -7.085938 5.945312 -3.121094 11.597656 -4.460938 C 13.082031 -4.855469 14.472656 -5.699219 15.859375 -6.394531 C 16.355469 -6.640625 16.75 -7.039062 17.246094 -7.382812 C 17.492188 -7.039062 17.691406 -6.839844 17.839844 -6.589844 C 19.476562 -4.113281 21.609375 -3.171875 23.589844 -4.015625 C 25.523438 -4.855469 26.117188 -6.9375 25.472656 -9.910156 Z M 11.101562 -11.644531 C 10.554688 -11.449219 9.761719 -11.398438 9.265625 -11.644531 C 8.96875 -11.792969 8.96875 -12.835938 9.167969 -13.332031 C 10.257812 -16.402344 11.992188 -18.882812 15.3125 -20.269531 C 15.910156 -16.453125 14.125 -12.835938 11.101562 -11.644531 Z M 11.101562 -11.644531 "/></g></g></g><g fill="#017b40" fill-opacity="1"><g transform="translate(257.584746, 287.991809)"><g><path d="M 22.203125 -19.675781 C 21.609375 -21.804688 20.070312 -23.292969 18.089844 -24.332031 C 14.917969 -25.917969 11.792969 -25.820312 8.671875 -24.136719 C 8.226562 -25.175781 8.078125 -26.265625 7.433594 -26.960938 C 6.738281 -27.703125 5.601562 -28.496094 4.707031 -28.398438 C 3.867188 -28.347656 2.972656 -27.257812 2.328125 -26.464844 C 1.980469 -26.066406 1.980469 -25.273438 1.980469 -24.679688 C 1.882812 -18.78125 1.832031 -12.835938 1.832031 -6.9375 C 1.785156 -6.34375 1.933594 -5.699219 2.082031 -5.105469 C 2.625 -2.726562 4.511719 -1.238281 6.839844 -1.386719 C 9.070312 -1.535156 10.851562 -3.269531 11.101562 -5.648438 C 11.199219 -6.789062 10.851562 -7.980469 11.101562 -9.019531 C 11.644531 -11.398438 12.339844 -13.777344 13.132812 -16.058594 C 13.578125 -17.34375 14.621094 -17.59375 15.910156 -17 C 16.851562 -16.503906 17.839844 -15.910156 18.882812 -15.859375 C 19.824219 -15.757812 21.210938 -15.957031 21.757812 -16.601562 C 22.300781 -17.296875 22.5 -18.734375 22.203125 -19.675781 Z M 22.203125 -19.675781 "/></g></g></g><g fill="#017b40" fill-opacity="1"><g transform="translate(281.818147, 287.991809)"><g><path d="M 21.359375 -23.984375 C 19.425781 -25.96875 17.046875 -27.257812 14.324219 -27.753906 C 10.359375 -28.496094 6.738281 -26.910156 4.511719 -23.589844 C 2.824219 -21.011719 2.132812 -18.136719 1.882812 -15.117188 C 1.238281 -7.878906 6.246094 -1.832031 15.363281 -2.773438 C 16.652344 -2.875 18.1875 -3.765625 19.128906 -4.707031 C 20.863281 -6.542969 20.269531 -8.722656 17.890625 -9.464844 C 16.253906 -10.011719 14.472656 -10.058594 12.785156 -10.359375 C 11.894531 -10.554688 11.050781 -10.851562 10.160156 -11.152344 C 13.230469 -11.695312 16.207031 -11.894531 18.882812 -12.835938 C 23.984375 -14.621094 25.125 -20.070312 21.359375 -23.984375 Z M 16.949219 -19.230469 C 14.71875 -18.980469 12.4375 -18.734375 9.960938 -18.484375 C 10.359375 -19.972656 11.003906 -21.113281 12.488281 -21.558594 C 14.171875 -22.054688 16.253906 -21.210938 17.542969 -19.476562 C 17.246094 -19.328125 17.097656 -19.230469 16.949219 -19.230469 Z M 16.949219 -19.230469 "/></g></g></g></svg>